<?xml version="1.0" encoding="utf-8"?>
<!-- Generator: Adobe Illustrator 21.0.0, SVG Export Plug-In . SVG Version: 6.00 Build 0)  -->
<svg version="1.1" id="Layer_1" xmlns="http://www.w3.org/2000/svg" xmlns:xlink="http://www.w3.org/1999/xlink" x="0px" y="0px"
	 viewBox="0 0 75.9 75.9" style="enable-background:new 0 0 75.9 75.9;" xml:space="preserve">
<style type="text/css">
	.st0{fill:#FFFFFF;}
</style>
<g id="Facebook_4_">
	<path class="st0" d="M38,0C17,0,0,17,0,38c0,21,17,38,38,38c21,0,38-17,38-38C75.9,17,58.9,0,38,0z M56.4,54c0,1.1-0.5,2.3-1.7,2.3
		h-9.3v-14h4.8l0.7-6h-5.5v-3.6c0-1.6,0.4-2.4,2.7-2.4h3.3v-5.2c-1-0.1-2.6-0.2-4.6-0.2c-4.2,0-7.4,2.6-7.4,7.3v4.1h-5v6h5v14H22.1
		c-1.1,0-1.7-1.2-1.7-2.3V21.4c0-1.1,0.6-2,1.7-2h32.7c1.1,0,1.7,0.9,1.7,2V54z"/>
</g>
</svg>
