<?xml version="1.0" encoding="utf-8"?>
<!-- Generator: Adobe Illustrator 21.0.0, SVG Export Plug-In . SVG Version: 6.00 Build 0)  -->
<svg version="1.1" id="Layer_1" xmlns="http://www.w3.org/2000/svg" xmlns:xlink="http://www.w3.org/1999/xlink" x="0px" y="0px"
	 viewBox="0 0 75.9 75.9" style="enable-background:new 0 0 75.9 75.9;" xml:space="preserve">
<style type="text/css">
	.st0{fill:#FFFFFF;}
</style>
<g id="Instagram_5_">
	<path class="st0" d="M31.9,37.9c0-3.9,3.2-7,7-7c3.9,0,7.1,3.1,7.1,7c0,3.9-3.2,7-7.1,7C35.1,44.9,31.9,41.8,31.9,37.9z"/>
	<path class="st0" d="M52.4,28.7c0,0.6-0.5,1.2-1.2,1.2h-3.7c-0.6,0-1.2-0.5-1.2-1.2V25c0-0.6,0.5-1.2,1.2-1.2h3.7
		c0.6,0,1.2,0.5,1.2,1.2V28.7z"/>
	<path class="st0" d="M49.2,34.9h4.2v16.7c0,0.6-0.1,1.3-0.8,1.3H25.2c-0.6,0-0.7-0.6-0.7-1.3V34.9h4.2c-0.6,0-0.8,2.2-0.8,3.3
		c0,6.1,5,11,11.2,11c6.2,0,11.2-4.8,11.2-11C50.1,37.2,50,34.9,49.2,34.9z"/>
	<path class="st0" d="M38,0C17,0,0,17,0,38c0,21,17,38,38,38c21,0,38-17,38-38C75.9,17,58.9,0,38,0z M57.4,51.8c0,2.4-2.1,4-4.5,4
		H25c-2.4,0-4.5-1.6-4.5-4v-28c0-2.4,2.1-4,4.5-4h28c2.4,0,4.5,1.6,4.5,4V51.8z"/>
</g>
</svg>
