<?xml version="1.0" encoding="utf-8"?>
<!-- Generator: Adobe Illustrator 21.0.0, SVG Export Plug-In . SVG Version: 6.00 Build 0)  -->
<svg version="1.1" id="Layer_1" xmlns="http://www.w3.org/2000/svg" xmlns:xlink="http://www.w3.org/1999/xlink" x="0px" y="0px"
	 viewBox="0 0 75.9 75.9" style="enable-background:new 0 0 75.9 75.9;" xml:space="preserve">
<style type="text/css">
	.st0{fill:#FFFFFF;}
</style>
<g id="LinKeDin">
	<path class="st0" d="M38,0C17,0,0,17,0,38c0,21,17,38,38,38c21,0,38-17,38-38C75.9,17,58.9,0,38,0z M28.4,54.9h-7v-23h7V54.9z
		 M24.5,29.9L24.5,29.9c-2.7,0-4.3-2-4.3-4.2c0-2.3,1.7-4.1,4.4-4.1c2.6,0,4.3,1.9,4.3,4.1C28.9,27.9,27.2,29.9,24.5,29.9z
		 M57.4,54.9h-9V43.2c0-3.1-1-5.2-3.8-5.2c-2.1,0-3.4,1.4-3.9,2.8c-0.2,0.5-0.2,1.2-0.2,1.9v12.2h-7.7c0,0,0.1-21,0-23h7.7v3.9
		c1-1.6,3.4-3.8,7.5-3.8c5.1,0,9.5,3.3,9.5,10.3V54.9z"/>
</g>
</svg>
